<mxfile host="www.draw.io" modified="2019-10-28T16:23:48.722Z" agent="Mozilla/5.0 (Windows NT 10.0; Win64; x64) AppleWebKit/537.36 (KHTML, like Gecko) Chrome/78.0.3904.70 Safari/537.36" etag="dH00Z12QMbgjLlFuEbeU" version="12.1.8" type="github" pages="1">
  <diagram id="xYYzmhv4AhwAKaXK-0AA" name="Page-1">
    <mxGraphModel dx="1536" dy="822" grid="1" gridSize="10" guides="1" tooltips="1" connect="1" arrows="1" fold="1" page="1" pageScale="1" pageWidth="850" pageHeight="1100" math="0" shadow="0">
      <root>
        <mxCell id="0"/>
        <mxCell id="1" parent="0"/>
        <mxCell id="ULWGMYzZgYN6fXfgwVwT-1" value="" style="rounded=1;whiteSpace=wrap;html=1;" vertex="1" parent="1">
          <mxGeometry x="350" y="170" width="120" height="60" as="geometry"/>
        </mxCell>
        <mxCell id="ULWGMYzZgYN6fXfgwVwT-2" value="" style="ellipse;whiteSpace=wrap;html=1;" vertex="1" parent="1">
          <mxGeometry x="350" y="310" width="120" height="80" as="geometry"/>
        </mxCell>
      </root>
    </mxGraphModel>
  </diagram>
</mxfile>
